<svg viewBox="0 0 611.4462739077613 90.67153083431205" xmlns="http://www.w3.org/2000/svg" class="h-24 w-96 bg-black px-2" height="58.65176615827585" width="395.52">
    <!-- RECT -->
    <g><rect width="3.3531132822735557" height="78.73070694730423" x="203.79537716403868" y="5.970411943503912" fill="#ffffff" opacity="1" stroke-width="0" stroke="transparent" fill-opacity="1" xmlns="http://www.w3.org/2000/svg" class="rect-r$-0" data-fill-palette-color="primary" rx="1%" id="r$-0" data-palette-color="#ffffff" /></g>
    <!-- END OF RECT -->
    <!-- Text -->
    <g transform="matrix(1,0,0,1,215.92627390776136,12.531304189112596)">
      <svg viewBox="0 0 395.52 65.60892245608686" height="65.60892245608686" width="395.52">
        <g id="textblocktransform">
          <svg viewBox="0 0 395.52 65.60892245608686" height="65.60892245608686" width="395.52" id="textblock">
            <!-- Infinty mart -->

            <g>
              <svg viewBox="0 0 395.52 37.18202384591868" height="37.18202384591868" width="395.52">
                <g transform="matrix(1,0,0,1,0,0)">
                  <svg width="395.52" viewBox="2.29 -29.54 319.40999999999997 30.029999999999998" height="37.18202384591868" data-palette-color="#ffffff"><path d="M12.79 0L2.39 0 2.29-1.86 5.27-2.54Q5.37-2.78 5.4-3.66 5.42-4.54 5.44-6.05 5.47-7.57 5.47-9.72L5.47-9.72 5.47-18.9Q5.47-21.09 5.44-22.63 5.42-24.17 5.4-25.07 5.37-25.98 5.27-26.12L5.27-26.12 2.29-26.81 2.39-28.66 12.79-28.66 12.89-26.81 9.91-26.12Q9.81-25.98 9.74-25.17 9.67-24.37 9.64-22.85 9.62-21.34 9.62-18.9L9.62-18.9 9.62-9.72Q9.62-7.37 9.64-5.86 9.67-4.35 9.74-3.54 9.81-2.73 9.91-2.54L9.91-2.54 12.89-1.86 12.79 0ZM40.67-6.98L39.79-6.98 39.79-17.92Q39.79-20.8 39.77-22.53 39.74-24.27 39.67-25.12 39.6-25.98 39.55-26.12L39.55-26.12 36.23-26.81 36.37-28.66 45.65-28.66 45.8-26.81 42.77-26.12Q42.77-25.98 42.7-25.12 42.62-24.27 42.58-22.51 42.53-20.75 42.53-17.92L42.53-17.92 42.53-6.3Q42.53-4.74 42.53-3.13 42.53-1.51 42.58 0.2L42.58 0.2 40.38 0.2 22.41-23.97 23.48-23.97 23.48-10.89Q23.48-7.96 23.53-6.2 23.58-4.44 23.65-3.59 23.73-2.73 23.78-2.54L23.78-2.54 27.1-1.86 26.95 0 17.58 0 17.43-1.86 20.41-2.54Q20.51-2.73 20.55-3.56 20.6-4.39 20.65-6.18 20.7-7.96 20.7-10.89L20.7-10.89 20.7-19.24Q20.7-21.44 20.65-22.85 20.6-24.27 20.55-25.05 20.51-25.83 20.41-26.12L20.41-26.12 17.43-26.81 17.58-28.66 24.27-28.66 40.67-6.98ZM61.71 0L50.68 0 50.58-1.86 53.36-2.54Q53.41-2.73 53.44-3.52 53.46-4.3 53.49-5.79 53.51-7.28 53.51-9.47L53.51-9.47 53.56-19.78Q53.56-21.73 53.54-23.1 53.51-24.46 53.49-25.22 53.46-25.98 53.41-26.12L53.41-26.12 50.39-26.81 50.53-28.66 65.96-28.66Q66.69-28.66 67.43-28.66 68.16-28.66 69.01-28.74 69.87-28.81 70.84-28.86L70.84-28.86 71.87-22.41 69.62-22.07 67.96-26.17Q67.67-26.27 67.18-26.29 66.69-26.32 66.16-26.32L66.16-26.32 60.74-26.32Q60-26.32 59.1-26.29 58.2-26.27 57.66-26.17L57.66-26.17Q57.66-25.98 57.64-25.44 57.61-24.9 57.61-24.1 57.61-23.29 57.61-22.24 57.61-21.19 57.61-20.07L57.61-20.07 57.66-9.42Q57.66-7.08 57.71-5.64 57.76-4.2 57.78-3.47 57.81-2.73 57.86-2.54L57.86-2.54 61.81-1.95 61.71 0ZM68.31-9.62L66.21-9.62 65.57-13.13Q65.28-13.23 64.67-13.28 64.06-13.33 63.23-13.33L63.23-13.33 59.13-13.33Q58.59-13.33 58-13.31 57.42-13.28 56.59-13.23L56.59-13.23 56.59-15.92Q57.17-15.87 57.83-15.82 58.49-15.77 59.13-15.77L59.13-15.77 63.23-15.77Q64.2-15.77 64.77-15.82 65.33-15.87 65.57-15.97L65.57-15.97 66.21-19.29 68.31-19.29 68.31-9.62ZM85.54 0L75.14 0 75.04-1.86 78.02-2.54Q78.12-2.78 78.14-3.66 78.17-4.54 78.19-6.05 78.22-7.57 78.22-9.72L78.22-9.72 78.22-18.9Q78.22-21.09 78.19-22.63 78.17-24.17 78.14-25.07 78.12-25.98 78.02-26.12L78.02-26.12 75.04-26.81 75.14-28.66 85.54-28.66 85.64-26.81 82.66-26.12Q82.56-25.98 82.49-25.17 82.41-24.37 82.39-22.85 82.37-21.34 82.37-18.9L82.37-18.9 82.37-9.72Q82.37-7.37 82.39-5.86 82.41-4.35 82.49-3.54 82.56-2.73 82.66-2.54L82.66-2.54 85.64-1.86 85.54 0ZM113.42-6.98L112.54-6.98 112.54-17.92Q112.54-20.8 112.51-22.53 112.49-24.27 112.42-25.12 112.34-25.98 112.29-26.12L112.29-26.12 108.97-26.81 109.12-28.66 118.4-28.66 118.54-26.81 115.52-26.12Q115.52-25.98 115.44-25.12 115.37-24.27 115.32-22.51 115.27-20.75 115.27-17.92L115.27-17.92 115.27-6.3Q115.27-4.74 115.27-3.13 115.27-1.51 115.32 0.2L115.32 0.2 113.12 0.2 95.16-23.97 96.23-23.97 96.23-10.89Q96.23-7.96 96.28-6.2 96.33-4.44 96.4-3.59 96.47-2.73 96.52-2.54L96.52-2.54 99.84-1.86 99.7 0 90.32 0 90.18-1.86 93.15-2.54Q93.25-2.73 93.3-3.56 93.35-4.39 93.4-6.18 93.45-7.96 93.45-10.89L93.45-10.89 93.45-19.24Q93.45-21.44 93.4-22.85 93.35-24.27 93.3-25.05 93.25-25.83 93.15-26.12L93.15-26.12 90.18-26.81 90.32-28.66 97.01-28.66 113.42-6.98ZM133.58 0L123.18 0 123.08-1.86 126.06-2.54Q126.16-2.78 126.18-3.66 126.21-4.54 126.23-6.05 126.26-7.57 126.26-9.72L126.26-9.72 126.26-18.9Q126.26-21.09 126.23-22.63 126.21-24.17 126.18-25.07 126.16-25.98 126.06-26.12L126.06-26.12 123.08-26.81 123.18-28.66 133.58-28.66 133.68-26.81 130.7-26.12Q130.6-25.98 130.53-25.17 130.46-24.37 130.43-22.85 130.41-21.34 130.41-18.9L130.41-18.9 130.41-9.72Q130.41-7.37 130.43-5.86 130.46-4.35 130.53-3.54 130.6-2.73 130.7-2.54L130.7-2.54 133.68-1.86 133.58 0ZM161.22-28.86L161.22-28.86 162.29-20.95 160.14-20.7 158.09-26.22Q157.7-26.32 157.19-26.34 156.67-26.37 156.28-26.37L156.28-26.37 154.53-26.37Q154.04-26.37 153.21-26.37 152.38-26.37 151.69-26.32L151.69-26.32Q151.69-25.93 151.67-24.49 151.65-23.05 151.65-21.14 151.65-19.24 151.65-17.48L151.65-17.48 151.65-10.89Q151.65-7.81 151.69-5.54 151.74-3.27 151.74-2.54L151.74-2.54 155.89-1.95 155.75 0 143.3 0 143.2-1.95 147.3-2.54Q147.3-3.27 147.35-5.54 147.4-7.81 147.4-10.89L147.4-10.89 147.4-17.48Q147.4-19.24 147.4-21.14 147.4-23.05 147.4-24.49 147.4-25.93 147.35-26.32L147.35-26.32Q146.71-26.37 145.88-26.37 145.05-26.37 144.57-26.37L144.57-26.37 142.66-26.37Q142.27-26.37 141.81-26.34 141.34-26.32 140.9-26.22L140.9-26.22 138.9-20.65 136.7-20.95 137.78-28.86Q138.32-28.81 138.93-28.78 139.54-28.76 140.15-28.71 140.76-28.66 141.34-28.66 141.93-28.66 142.51-28.66L142.51-28.66 156.48-28.66Q157.02-28.66 157.63-28.66 158.24-28.66 158.82-28.71 159.41-28.76 160.02-28.78 160.63-28.81 161.22-28.86ZM189.58-26.81L187.14-26.12 177.13-10.64 178.35-13.96 178.35-9.33Q178.35-7.47 178.38-6.23 178.4-4.98 178.42-4.22 178.45-3.47 178.5-3.08 178.55-2.69 178.55-2.54L178.55-2.54 181.96-1.9 181.87 0 170.73 0 170.59-1.9 174.01-2.54Q174.05-2.69 174.1-3.08 174.15-3.47 174.18-4.22 174.2-4.98 174.23-6.23 174.25-7.47 174.25-9.33L174.25-9.33 174.25-13.96 175.23-10.64 165.56-26.12 163.12-26.81 163.21-28.66 173.32-28.66 173.47-26.81 170.49-26.12 177.67-14.6 176.98-14.6 183.87-26.12 180.45-26.81 180.6-28.66 189.48-28.66 189.58-26.81ZM201.54-26.81L201.64-28.66 210.08-28.66 220.34-5.27 219.46-5.27 229.52-28.66 237.43-28.66 237.58-26.81 234.55-26.17Q234.5-25.49 234.52-23.61 234.55-21.73 234.6-19.58L234.6-19.58 234.79-10.64Q234.84-8.2 234.89-6.57 234.94-4.93 234.99-3.98 235.04-3.03 235.08-2.49L235.08-2.49 238.06-1.86 237.97 0 227.61 0 227.47-1.86 230.45-2.49Q230.5-3.08 230.5-3.86 230.5-4.64 230.5-6.05 230.5-7.47 230.45-9.91L230.45-9.91 230.35-27.25 231.62-27.25 219.8 0.15 218.09 0.15 205.98-27.29 207.25-27.29 207.3-10.69Q207.3-6.64 207.33-4.81 207.35-2.98 207.4-2.54L207.4-2.54 210.72-1.86 210.57 0 201 0 200.86-1.86 204.18-2.54Q204.23-2.88 204.25-3.81 204.27-4.74 204.32-6.27 204.37-7.81 204.37-9.91L204.37-9.91 204.52-19.58Q204.57-21.73 204.54-23.51 204.52-25.29 204.52-26.12L204.52-26.12 201.54-26.81ZM248.75 0L240.55 0 240.45-1.86 242.85-2.54 252.9-27.83 255.74-29.54 266.38-2.54 268.82-1.86 268.68 0 258.81 0 258.72-1.86 261.69-2.54 258.81-9.77 258.28-11.28 252.95-24.56 254.08-25.2 249-11.28 248.46-9.81 245.87-2.54 248.85-1.86 248.75 0ZM247.39-9.03L247.39-9.03 247.39-11.62Q248.31-11.57 249.93-11.52 251.54-11.47 253.88-11.47L253.88-11.47Q256.18-11.47 257.81-11.52 259.45-11.57 260.33-11.62L260.33-11.62 260.33-9.03Q258.67-9.08 257.03-9.11 255.39-9.13 253.88-9.13L253.88-9.13Q252.42-9.13 250.83-9.11 249.24-9.08 247.39-9.03ZM281.42 0L271.36 0 271.26-1.86 274.24-2.59Q274.24-2.93 274.26-3.64 274.29-4.35 274.29-5.32 274.29-6.3 274.31-7.45 274.34-8.59 274.34-9.72L274.34-9.72 274.34-18.9Q274.34-21.14 274.31-22.68 274.29-24.22 274.24-25.07 274.19-25.93 274.14-26.12L274.14-26.12 271.12-26.81 271.26-28.66 281.95-28.66Q286.54-28.66 288.96-26.88 291.38-25.1 291.38-21.63L291.38-21.63Q291.38-19.24 290.06-17.36 288.74-15.48 286.37-14.4 284.01-13.33 280.98-13.33L280.98-13.33 277.85-13.33 277.85-15.53 280.64-15.53Q283.66-15.53 285.35-17.04 287.03-18.55 287.03-21.24L287.03-21.24Q287.03-23.83 285.57-25.17 284.1-26.51 281.37-26.51L281.37-26.51 278.54-26.51Q278.49-26.42 278.46-26.12 278.44-25.83 278.44-25.15 278.44-24.46 278.44-23.14 278.44-21.83 278.44-19.63L278.44-19.63 278.44-9.72Q278.44-7.62 278.46-6.2 278.49-4.79 278.56-3.93 278.63-3.08 278.68-2.59L278.68-2.59 281.56-1.86 281.42 0ZM294.5 0.49L294.5 0.49Q292.36 0.49 290.7-0.32 289.04-1.12 287.5-3.03 285.96-4.93 284.1-8.11L284.1-8.11 280.78-14.16 284.45-14.99 289.72-7.23Q291.09-5.22 292.18-4.03 293.28-2.83 294.36-2.25 295.43-1.66 296.7-1.42L296.7-1.42 296.65 0.29Q296.16 0.39 295.6 0.44 295.04 0.49 294.5 0.49ZM320.62-28.86L320.62-28.86 321.7-20.95 319.55-20.7 317.5-26.22Q317.11-26.32 316.6-26.34 316.08-26.37 315.69-26.37L315.69-26.37 313.93-26.37Q313.45-26.37 312.62-26.37 311.79-26.37 311.1-26.32L311.1-26.32Q311.1-25.93 311.08-24.49 311.05-23.05 311.05-21.14 311.05-19.24 311.05-17.48L311.05-17.48 311.05-10.89Q311.05-7.81 311.1-5.54 311.15-3.27 311.15-2.54L311.15-2.54 315.3-1.95 315.16 0 302.7 0 302.61-1.95 306.71-2.54Q306.71-3.27 306.76-5.54 306.81-7.81 306.81-10.89L306.81-10.89 306.81-17.48Q306.81-19.24 306.81-21.14 306.81-23.05 306.81-24.49 306.81-25.93 306.76-26.32L306.76-26.32Q306.12-26.37 305.29-26.37 304.46-26.37 303.97-26.37L303.97-26.37 302.07-26.37Q301.68-26.37 301.22-26.34 300.75-26.32 300.31-26.22L300.31-26.22 298.31-20.65 296.11-20.95 297.19-28.86Q297.72-28.81 298.33-28.78 298.94-28.76 299.55-28.71 300.17-28.66 300.75-28.66 301.34-28.66 301.92-28.66L301.92-28.66 315.89-28.66Q316.43-28.66 317.04-28.66 317.65-28.66 318.23-28.71 318.82-28.76 319.43-28.78 320.04-28.81 320.62-28.86Z" opacity="1" transform="matrix(1,0,0,1,0,0)" fill="#ffffff" xmlns="http://www.w3.org/2000/svg" class="wordmark-text-0" data-fill-palette-color="primary" id="text-0" /></svg>
                </g>
              </svg>
            </g>
            <!-- END of Infinty mart -->

            <!-- Uncover endless choices -->

            <g transform="matrix(1,0,0,1,0,45.959807307367775)">
              <svg viewBox="0 0 232.209792 19.649115148719083" height="19.649115148719083" width="232.209792">
                <g transform="matrix(1,0,0,1,0,0)">
                  <svg width="232.209792" viewBox="3.9 -37.6 450.8 38.15" height="19.649115148719083" data-palette-color="#ffffff"><path d="M22.7-34.25L22.7-8.9Q22.7-4.8 20.28-2.13 17.85 0.55 13.3 0.55L13.3 0.55Q8.7 0.55 6.3-2.1 3.9-4.75 3.9-8.9L3.9-8.9 3.9-34.25 6.75-34.25 6.75-9.15Q6.75-5.75 8.38-3.88 10-2 13.3-2L13.3-2Q16.6-2 18.2-3.9 19.8-5.8 19.8-9.15L19.8-9.15 19.8-34.25 22.7-34.25ZM40.55-26.7Q43.4-26.7 44.97-24.68 46.55-22.65 46.55-19.15L46.55-19.15 46.55 0 43.75 0 43.75-18.8Q43.75-24.4 40-24.4L40-24.4Q36.45-24.4 33.55-18.75L33.55-18.75 33.55 0 30.75 0 30.75-26.15 33.15-26.15 33.45-21.65Q34.9-24.1 36.55-25.4 38.2-26.7 40.55-26.7L40.55-26.7ZM62.45-26.7Q64.25-26.7 65.7-26.08 67.15-25.45 68.55-24.05L68.55-24.05 67.2-22.35Q66.09-23.35 64.97-23.83 63.84-24.3 62.5-24.3L62.5-24.3Q59.5-24.3 57.8-21.55 56.09-18.8 56.09-12.95L56.09-12.95Q56.09-1.9 62.45-1.9L62.45-1.9Q65-1.9 67.3-3.95L67.3-3.95 68.7-2.25Q65.9 0.55 62.45 0.55L62.45 0.55Q58.05 0.55 55.57-2.83 53.09-6.2 53.09-12.9L53.09-12.9Q53.09-19.55 55.59-23.13 58.09-26.7 62.45-26.7L62.45-26.7ZM81.44-26.7Q85.89-26.7 88.29-23.28 90.69-19.85 90.69-13.15L90.69-13.15Q90.69-6.6 88.22-3.03 85.74 0.55 81.39 0.55L81.39 0.55Q77.04 0.55 74.62-3 72.19-6.55 72.19-13.05L72.19-13.05Q72.19-19.65 74.64-23.18 77.09-26.7 81.44-26.7L81.44-26.7ZM81.44-24.3Q75.14-24.3 75.14-13.05L75.14-13.05Q75.14-1.8 81.39-1.8L81.39-1.8Q87.74-1.8 87.74-13.15L87.74-13.15Q87.74-18.9 86.14-21.6 84.54-24.3 81.44-24.3L81.44-24.3ZM109.54-26.15L112.34-26.15 105.04 0 101.64 0 94.04-26.15 96.94-26.15 103.34-2.45 109.54-26.15ZM132.99-14.05Q132.99-12.95 132.89-11.95L132.89-11.95 118.59-11.95Q118.79-6.55 120.46-4.2 122.14-1.85 125.04-1.85L125.04-1.85Q126.74-1.85 128.04-2.43 129.34-3 130.74-4.25L130.74-4.25 132.14-2.6Q130.59-1.05 128.86-0.25 127.14 0.55 124.99 0.55L124.99 0.55Q120.64 0.55 118.16-2.88 115.69-6.3 115.69-12.85L115.69-12.85Q115.69-19.5 118.06-23.1 120.44-26.7 124.59-26.7L124.59-26.7Q128.69-26.7 130.84-23.48 132.99-20.25 132.99-14.05L132.99-14.05ZM130.24-14.15L130.24-14.95Q130.24-19.65 128.84-22 127.44-24.35 124.59-24.35L124.59-24.35Q118.94-24.35 118.59-14.15L118.59-14.15 130.24-14.15ZM148.29-26.7Q149.19-26.7 150.29-26.4L150.29-26.4 149.79-23.8Q148.89-24.05 147.99-24.05L147.99-24.05Q145.84-24.05 144.49-22.18 143.14-20.3 142.29-16.5L142.29-16.5 142.29 0 139.49 0 139.49-26.15 141.89-26.15 142.14-20.9Q143.09-23.85 144.59-25.28 146.09-26.7 148.29-26.7L148.29-26.7ZM166.43-34.25L180.98-34.25 180.68-31.8 169.28-31.8 169.28-18.95 179.13-18.95 179.13-16.55 169.28-16.55 169.28-2.45 181.23-2.45 181.23 0 166.43 0 166.43-34.25ZM197.03-26.7Q199.88-26.7 201.45-24.68 203.03-22.65 203.03-19.15L203.03-19.15 203.03 0 200.23 0 200.23-18.8Q200.23-24.4 196.48-24.4L196.48-24.4Q192.93-24.4 190.03-18.75L190.03-18.75 190.03 0 187.23 0 187.23-26.15 189.63-26.15 189.93-21.65Q191.38-24.1 193.03-25.4 194.68-26.7 197.03-26.7L197.03-26.7ZM223.98-37.15L226.78-36.8 226.78 0 224.33 0 224.08-3.8Q221.83 0.55 217.83 0.55L217.83 0.55Q213.93 0.55 211.75-3 209.58-6.55 209.58-12.95L209.58-12.95Q209.58-17.1 210.63-20.23 211.68-23.35 213.6-25.03 215.53-26.7 218.08-26.7L218.08-26.7Q221.73-26.7 223.98-23.3L223.98-23.3 223.98-37.15ZM218.18-1.8Q220.08-1.8 221.48-3 222.88-4.2 223.98-6.5L223.98-6.5 223.98-20.4Q221.73-24.35 218.48-24.35L218.48-24.35Q215.73-24.35 214.13-21.48 212.53-18.6 212.53-13L212.53-13Q212.58-7.4 214.05-4.6 215.53-1.8 218.18-1.8L218.18-1.8ZM238.92 0.55Q237.12 0.55 236.02-0.63 234.92-1.8 234.92-3.85L234.92-3.85 234.92-36.8 237.72-37.15 237.72-3.95Q237.72-1.85 239.42-1.85L239.42-1.85Q240.12-1.85 240.82-2.15L240.82-2.15 241.52-0.15Q240.37 0.55 238.92 0.55L238.92 0.55ZM262.57-14.05Q262.57-12.95 262.47-11.95L262.47-11.95 248.17-11.95Q248.37-6.55 250.05-4.2 251.72-1.85 254.62-1.85L254.62-1.85Q256.32-1.85 257.62-2.43 258.92-3 260.32-4.25L260.32-4.25 261.72-2.6Q260.17-1.05 258.45-0.25 256.72 0.55 254.57 0.55L254.57 0.55Q250.22 0.55 247.75-2.88 245.27-6.3 245.27-12.85L245.27-12.85Q245.27-19.5 247.65-23.1 250.02-26.7 254.17-26.7L254.17-26.7Q258.27-26.7 260.42-23.48 262.57-20.25 262.57-14.05L262.57-14.05ZM259.82-14.15L259.82-14.95Q259.82-19.65 258.42-22 257.02-24.35 254.17-24.35L254.17-24.35Q248.52-24.35 248.17-14.15L248.17-14.15 259.82-14.15ZM274.62-26.7Q278.52-26.7 281.57-23.8L281.57-23.8 280.27-22.1Q278.82-23.3 277.54-23.85 276.27-24.4 274.67-24.4L274.67-24.4Q272.62-24.4 271.34-23.2 270.07-22 270.07-19.9L270.07-19.9Q270.07-18.1 271.19-17 272.32-15.9 275.32-14.8L275.32-14.8Q278.97-13.45 280.57-11.73 282.17-10 282.17-7L282.17-7Q282.17-3.55 279.89-1.5 277.62 0.55 274.22 0.55L274.22 0.55Q269.72 0.55 266.37-2.8L266.37-2.8 267.92-4.4Q269.37-3.1 270.84-2.43 272.32-1.75 274.17-1.75L274.17-1.75Q276.47-1.75 277.89-3.1 279.32-4.45 279.32-6.9L279.32-6.9Q279.32-8.45 278.82-9.43 278.32-10.4 277.12-11.18 275.92-11.95 273.67-12.8L273.67-12.8Q270.22-14.05 268.74-15.7 267.27-17.35 267.27-19.85L267.27-19.85Q267.27-22.8 269.37-24.75 271.47-26.7 274.62-26.7L274.62-26.7ZM293.87-26.7Q297.76-26.7 300.81-23.8L300.81-23.8 299.51-22.1Q298.06-23.3 296.79-23.85 295.51-24.4 293.92-24.4L293.92-24.4Q291.87-24.4 290.59-23.2 289.31-22 289.31-19.9L289.31-19.9Q289.31-18.1 290.44-17 291.56-15.9 294.56-14.8L294.56-14.8Q298.22-13.45 299.81-11.73 301.42-10 301.42-7L301.42-7Q301.42-3.55 299.14-1.5 296.87 0.55 293.47 0.55L293.47 0.55Q288.97 0.55 285.62-2.8L285.62-2.8 287.17-4.4Q288.62-3.1 290.09-2.43 291.56-1.75 293.42-1.75L293.42-1.75Q295.72-1.75 297.14-3.1 298.56-4.45 298.56-6.9L298.56-6.9Q298.56-8.45 298.06-9.43 297.56-10.4 296.37-11.18 295.17-11.95 292.92-12.8L292.92-12.8Q289.47-14.05 287.99-15.7 286.51-17.35 286.51-19.85L286.51-19.85Q286.51-22.8 288.62-24.75 290.72-26.7 293.87-26.7L293.87-26.7ZM328.81-34.8Q331.06-34.8 332.79-34.02 334.51-33.25 336.21-31.65L336.21-31.65 334.66-29.85Q333.21-31.15 331.88-31.73 330.56-32.3 328.91-32.3L328.91-32.3Q325.01-32.3 322.66-28.75 320.31-25.2 320.31-17.15L320.31-17.15Q320.31-9.3 322.63-5.65 324.96-2 328.91-2L328.91-2Q330.81-2 332.11-2.7 333.41-3.4 334.86-4.7L334.86-4.7 336.51-2.9Q333.26 0.55 328.86 0.55L328.86 0.55Q323.61 0.55 320.44-3.9 317.26-8.35 317.26-17.15L317.26-17.15Q317.26-23.1 318.79-27.05 320.31-31 322.91-32.9 325.51-34.8 328.81-34.8L328.81-34.8ZM351.36-26.7Q354.21-26.7 355.78-24.68 357.36-22.65 357.36-19.15L357.36-19.15 357.36 0 354.56 0 354.56-18.8Q354.56-24.4 350.81-24.4L350.81-24.4Q347.26-24.4 344.36-18.75L344.36-18.75 344.36 0 341.56 0 341.56-36.8 344.36-37.15 344.36-21.75Q345.81-24.15 347.46-25.43 349.11-26.7 351.36-26.7L351.36-26.7ZM373.16-26.7Q377.61-26.7 380-23.28 382.41-19.85 382.41-13.15L382.41-13.15Q382.41-6.6 379.93-3.03 377.46 0.55 373.11 0.55L373.11 0.55Q368.75 0.55 366.33-3 363.91-6.55 363.91-13.05L363.91-13.05Q363.91-19.65 366.36-23.18 368.81-26.7 373.16-26.7L373.16-26.7ZM373.16-24.3Q366.86-24.3 366.86-13.05L366.86-13.05Q366.86-1.8 373.11-1.8L373.11-1.8Q379.46-1.8 379.46-13.15L379.46-13.15Q379.46-18.9 377.86-21.6 376.25-24.3 373.16-24.3L373.16-24.3ZM389.15-26.15L391.95-26.15 391.95 0 389.15 0 389.15-26.15ZM390.5-37.6Q391.4-37.6 391.95-37 392.5-36.4 392.5-35.5L392.5-35.5Q392.5-34.7 391.95-34.1 391.4-33.5 390.5-33.5L390.5-33.5Q389.65-33.5 389.08-34.1 388.5-34.7 388.5-35.5L388.5-35.5Q388.5-36.4 389.05-37 389.6-37.6 390.5-37.6L390.5-37.6ZM408.05-26.7Q409.85-26.7 411.3-26.08 412.75-25.45 414.15-24.05L414.15-24.05 412.8-22.35Q411.7-23.35 410.58-23.83 409.45-24.3 408.1-24.3L408.1-24.3Q405.1-24.3 403.4-21.55 401.7-18.8 401.7-12.95L401.7-12.95Q401.7-1.9 408.05-1.9L408.05-1.9Q410.6-1.9 412.9-3.95L412.9-3.95 414.3-2.25Q411.5 0.55 408.05 0.55L408.05 0.55Q403.65 0.55 401.18-2.83 398.7-6.2 398.7-12.9L398.7-12.9Q398.7-19.55 401.2-23.13 403.7-26.7 408.05-26.7L408.05-26.7ZM435.1-14.05Q435.1-12.95 435-11.95L435-11.95 420.7-11.95Q420.9-6.55 422.57-4.2 424.25-1.85 427.15-1.85L427.15-1.85Q428.85-1.85 430.15-2.43 431.45-3 432.85-4.25L432.85-4.25 434.25-2.6Q432.7-1.05 430.97-0.25 429.25 0.55 427.1 0.55L427.1 0.55Q422.75 0.55 420.27-2.88 417.8-6.3 417.8-12.85L417.8-12.85Q417.8-19.5 420.17-23.1 422.55-26.7 426.7-26.7L426.7-26.7Q430.8-26.7 432.95-23.48 435.1-20.25 435.1-14.05L435.1-14.05ZM432.35-14.15L432.35-14.95Q432.35-19.65 430.95-22 429.55-24.35 426.7-24.35L426.7-24.35Q421.05-24.35 420.7-14.15L420.7-14.15 432.35-14.15ZM447.15-26.7Q451.05-26.7 454.1-23.8L454.1-23.8 452.8-22.1Q451.35-23.3 450.07-23.85 448.8-24.4 447.2-24.4L447.2-24.4Q445.15-24.4 443.87-23.2 442.6-22 442.6-19.9L442.6-19.9Q442.6-18.1 443.72-17 444.85-15.9 447.85-14.8L447.85-14.8Q451.5-13.45 453.1-11.73 454.7-10 454.7-7L454.7-7Q454.7-3.55 452.42-1.5 450.15 0.55 446.75 0.55L446.75 0.55Q442.25 0.55 438.9-2.8L438.9-2.8 440.45-4.4Q441.9-3.1 443.37-2.43 444.85-1.75 446.7-1.75L446.7-1.75Q449-1.75 450.42-3.1 451.85-4.45 451.85-6.9L451.85-6.9Q451.85-8.45 451.35-9.43 450.85-10.4 449.65-11.18 448.45-11.95 446.2-12.8L446.2-12.8Q442.75-14.05 441.27-15.7 439.8-17.35 439.8-19.85L439.8-19.85Q439.8-22.8 441.9-24.75 444-26.7 447.15-26.7L447.15-26.7Z" opacity="1" transform="matrix(1,0,0,1,0,0)" fill="#ffffff" xmlns="http://www.w3.org/2000/svg" class="slogan-text-1" data-fill-palette-color="secondary" id="text-1" /></svg>
                </g>
              </svg>
            </g>
            <!-- END of Uncover endless choices -->
          </svg>
        </g>
      </svg>
    </g>
    <!-- END of text -->

    <!-- LOGO -->
    <g>
      <svg viewBox="0 0 195.01759370258958 90.67153083431205" height="90.67153083431205" width="195.01759370258958">
        <g>
          <svg xmlns="http://www.w3.org/2000/svg" xmlns:xlink="http://www.w3.org/1999/xlink" version="1.1" x="0" y="0" viewBox="3.7500000000000044 28.499999999999996 92.48500000000001 43" enable-background="new 0 0 100 100" xml:space="preserve" height="90.67153083431205" width="195.01759370258958" xmlns="http://www.w3.org/2000/svg" class="icon-icon-0" data-fill-palette-color="accent" id="icon-0"><path d="M89.95 65.2c-4.061 4.06-9.46 6.3-15.2 6.3s-11.14-2.24-15.2-6.3l-6.72-6.72 5.65-5.65 6.72 6.72c2.55 2.55 5.939 3.95 9.55 3.95 3.6 0 6.99-1.4 9.54-3.95 5.27-5.27 5.27-13.83 0-19.1-2.55-2.55-5.94-3.95-9.54-3.95-3.61 0-7 1.4-9.55 3.95l-6.72 6.72L55.66 50 50 55.66l-2.83 2.82-6.72 6.72c-4.06 4.06-9.46 6.3-15.2 6.3s-11.14-2.24-15.2-6.3c-4.06-4.061-6.3-9.46-6.3-15.2s2.24-11.14 6.3-15.2c4.06-4.06 9.46-6.3 15.2-6.3s11.14 2.24 15.2 6.3l6.72 6.72-5.65 5.65-6.72-6.72c-2.55-2.55-5.94-3.95-9.55-3.95-3.6 0-6.99 1.4-9.54 3.95-2.56 2.56-3.96 5.95-3.96 9.55 0 3.6 1.4 7 3.96 9.54 2.55 2.56 5.94 3.96 9.54 3.96 3.61 0 7-1.4 9.55-3.95l6.72-6.72L44.34 50 50 44.34l2.83-2.82 6.72-6.72c4.061-4.06 9.46-6.3 15.2-6.3s11.14 2.24 15.2 6.3C98.33 43.18 98.33 56.82 89.95 65.2z" fill="#ffffff" data-fill-palette-color="accent" /></svg>
        </g>
      </svg>
    </g>
    <!-- END OF LOGO -->
  </svg>